<svg version="1.1" xmlns="http://www.w3.org/2000/svg" xmlns:xlink="http://www.w3.org/1999/xlink" x="0px" y="0px"
	 width="243.23px" height="91px" viewBox="0 0 243.23 91" enable-background="new 0 0 243.23 91" xml:space="preserve">

	<title>Silicon Salad : Agence Web Lille</title>

	<g class="globalcontener">

		<rect class="background" fill="#FFFFFF" width="243.23" height="91"/>

		<g class="three-greens">
			<path class="green-top" fill="#688037" d="M56.252,35.487v-5.24c0-2.511-1.54-5.092-4.185-5.082c-3.087,0.012-5.092,3.564-5.092,6.068
				C46.975,36.125,53.044,33.923,56.252,35.487z"/>
			<path class="green-center" fill="#688037" d="M56.275,41.148c-0.169-1.642-1.487-1.798-2.767-1.764l-3.016-0.097c-3.249-0.211-7.437-0.08-7.437-7.574
				c0-3.308-2.707-6.719-7.512-6.719c-5.209,0-8.946,3.994-9.701,7.428c-0.088,0.399-0.135,0.789-0.135,1.154
				c0,0.393,0.05,0.751,0.135,1.081c2.079,8.04,21.198-1.542,21.198,10.396c0,0.018,0,0.033,0,0.048h0.001
				c0,3.021,2.125,5.128,5.133,3.565c2.501-1.3,3.917-4.58,4.1-6.663c0.014-0.158,0.022-0.312,0.022-0.458
				C56.298,41.404,56.289,41.273,56.275,41.148z"/>
			<path class="green-bottom" fill="#688037" d="M25.844,44.351v8.888c0,4.283,4.198,6.67,9.902,3.729c4.859-2.504,7.389-7.673,7.389-10.367
				C43.135,42.634,28.93,44.76,25.844,44.351z"/>
		</g>

		<polygon class="home-icon" fill-rule="evenodd" clip-rule="evenodd" fill="#FFFFFF" points="33.525,41.785 35.916,41.785 35.916,48.631 39.16,48.631
			39.16,45.292 42.383,45.292 42.383,48.631 45.608,48.631 45.608,41.785 48.453,41.785 40.998,33.703 	"/>

		<path class="mask" fill="#FFFFFF" d="M0,0v91h243.23V0H0z M40.932,62.779c-11.568,0-20.946-9.379-20.946-20.947
		c0-11.569,9.378-20.947,20.946-20.947c11.569,0,20.947,9.377,20.947,20.947C61.878,53.4,52.5,62.779,40.932,62.779z"/>

		<g class="font">
			<path fill="#231F20" d="M84.471,54.082c-1.259,1.083-2.797,1.626-4.615,1.626c-1.084,0-2.151-0.254-3.2-0.761
				c-0.314-0.157-0.638-0.351-0.97-0.577v1.075h-2.884v-7.789h2.884v1.47c0,0.926,0.402,1.757,1.206,2.491
				c0.822,0.751,1.818,1.128,2.99,1.128c1.013,0,1.835-0.289,2.465-0.867c0.611-0.558,0.918-1.258,0.918-2.097
				c0-0.718-0.263-1.285-0.787-1.705c-0.315-0.227-0.766-0.459-1.351-0.694c-0.585-0.236-1.351-0.468-2.294-0.695
				c-0.962-0.244-1.815-0.529-2.557-0.852c-0.744-0.323-1.368-0.711-1.875-1.167c-1.032-0.961-1.547-2.23-1.547-3.803
				c0-1.485,0.603-2.736,1.809-3.75c1.172-0.96,2.579-1.442,4.222-1.442c0.472,0,0.958,0.031,1.456,0.092
				c0.498,0.062,0.992,0.197,1.481,0.408c0.438,0.192,0.835,0.393,1.193,0.603c0.358,0.209,0.721,0.516,1.088,0.917
				c0.227,0.246,0.411,0.464,0.55,0.656c0.141,0.193,0.28,0.437,0.42,0.734c0.104,0.227,0.188,0.529,0.249,0.904
				c0.061,0.376,0.113,0.748,0.157,1.115c0.044,0.367,0.075,0.813,0.092,1.336h-3.094v-1.18c0-0.104-0.018-0.249-0.053-0.432
				c-0.035-0.184-0.083-0.372-0.144-0.563c-0.062-0.193-0.145-0.376-0.25-0.551c-0.104-0.174-0.236-0.323-0.393-0.447
				c-0.35-0.262-0.747-0.432-1.194-0.511c-0.446-0.078-0.992-0.118-1.638-0.118c-0.892,0-1.609,0.235-2.151,0.708
				c-0.507,0.437-0.761,0.961-0.761,1.573c0,0.734,0.263,1.268,0.787,1.599c0.647,0.455,1.609,0.84,2.885,1.154
				c1.207,0.298,2.259,0.634,3.16,1.01c0.9,0.376,1.604,0.809,2.111,1.298c1.049,0.98,1.573,2.299,1.573,3.96
				S85.765,52.98,84.471,54.082z"/>
			<path fill="#231F20" d="M88.457,55.445l-0.052-1.18V44.222h-2.177v-2.86h5.218v11.225h2.125v2.858H88.457z M90.896,38.924
				c-0.403,0.367-0.849,0.551-1.338,0.551s-0.935-0.184-1.337-0.551c-0.367-0.402-0.55-0.848-0.55-1.337
				c0-0.542,0.184-0.998,0.55-1.364c0.402-0.367,0.848-0.551,1.337-0.551s0.935,0.184,1.338,0.551c0.367,0.402,0.55,0.848,0.55,1.337
				C91.446,38.103,91.263,38.557,90.896,38.924z"/>
			<path fill="#231F20" d="M95.097,55.445v-2.019V38.819h-2.255v-2.858h5.297v16.625h2.229v2.858H95.097z"/>
			<path fill="#231F20" d="M101.832,55.445l-0.053-1.18V44.222h-2.177v-2.86h5.219v11.225h2.124v2.858H101.832z M104.27,38.924
				c-0.402,0.367-0.848,0.551-1.337,0.551c-0.49,0-0.935-0.184-1.337-0.551c-0.368-0.402-0.551-0.848-0.551-1.337
				c0-0.542,0.184-0.998,0.551-1.364c0.402-0.367,0.847-0.551,1.337-0.551c0.489,0,0.935,0.184,1.337,0.551
				c0.367,0.402,0.551,0.848,0.551,1.337C104.821,38.103,104.637,38.557,104.27,38.924z"/>
			<path fill="#231F20" d="M118.627,53.242c-0.428,0.577-0.922,1.059-1.481,1.442c-1.084,0.752-2.326,1.128-3.724,1.128
				c-2.063,0-3.742-0.7-5.035-2.097c-1.294-1.399-1.941-3.165-1.941-5.299c0-2.08,0.639-3.818,1.915-5.217
				c1.312-1.452,2.946-2.178,4.904-2.178c0.646,0,1.268,0.088,1.861,0.263c0.594,0.174,1.146,0.463,1.652,0.865h2.413v5.613h-2.78
				c-0.036-0.997-0.14-1.71-0.315-2.138c-0.175-0.429-0.394-0.739-0.656-0.932c-0.629-0.506-1.355-0.76-2.176-0.76
				c-1.102,0-1.993,0.393-2.675,1.18c-0.717,0.821-1.076,1.924-1.076,3.304c0,0.734,0.097,1.369,0.289,1.902
				c0.192,0.533,0.463,1.001,0.812,1.402c0.699,0.786,1.643,1.18,2.833,1.18c0.454,0,0.853-0.056,1.193-0.17
				c0.341-0.113,0.651-0.275,0.931-0.485c0.28-0.227,0.546-0.521,0.8-0.879c0.253-0.357,0.546-0.922,0.879-1.69l2.622,1.127
				C119.471,51.854,119.056,52.665,118.627,53.242z"/>
			<path fill="#231F20" d="M132.303,53.663c-1.328,1.432-3.007,2.149-5.034,2.149c-2.028,0-3.707-0.718-5.035-2.149
				c-1.329-1.435-1.993-3.182-1.993-5.246c0-2.062,0.665-3.811,1.993-5.244c1.328-1.433,3.007-2.151,5.035-2.151
				c2.027,0,3.706,0.718,5.034,2.151c1.329,1.433,1.993,3.182,1.993,5.244C134.296,50.481,133.632,52.229,132.303,53.663z
				 M130.101,45.166c-0.734-0.822-1.679-1.233-2.832-1.233c-1.154,0-2.098,0.411-2.832,1.233c-0.752,0.839-1.127,1.922-1.127,3.251
				c0,1.33,0.375,2.413,1.127,3.252c0.734,0.821,1.678,1.232,2.832,1.232c1.153,0,2.098-0.411,2.832-1.232
				c0.752-0.839,1.127-1.922,1.127-3.252C131.228,47.088,130.853,46.005,130.101,45.166z"/>
			<path fill="#231F20" d="M144.393,55.445v-2.019v-8.156c0-0.473-0.101-0.813-0.302-1.023c-0.201-0.21-0.529-0.315-0.983-0.315
				c-0.297,0-0.607,0.043-0.931,0.13c-0.324,0.088-0.678,0.229-1.062,0.42c-0.332,0.157-0.643,0.332-0.932,0.525
				c-0.287,0.191-0.555,0.393-0.799,0.602v6.976h2.02v2.858h-5.062v-2.019v-9.205h-2.256v-2.86h5.298v0.841
				c0.594-0.351,1.215-0.635,1.861-0.853s1.328-0.328,2.046-0.328c0.595,0,1.141,0.088,1.64,0.263c0.498,0.174,0.947,0.463,1.35,0.865
				c0.77,0.752,1.154,1.74,1.154,2.964v7.474h1.967v2.858H144.393z"/>
			<path fill="#231F20" d="M167.39,54.082c-1.26,1.083-2.798,1.626-4.615,1.626c-1.085,0-2.15-0.254-3.2-0.761
				c-0.314-0.157-0.638-0.351-0.97-0.577v1.075h-2.885v-7.789h2.885v1.47c0,0.926,0.402,1.757,1.206,2.491
				c0.821,0.751,1.817,1.128,2.989,1.128c1.014,0,1.836-0.289,2.466-0.867c0.611-0.558,0.917-1.258,0.917-2.097
				c0-0.718-0.262-1.285-0.787-1.705c-0.314-0.227-0.764-0.459-1.35-0.694c-0.586-0.236-1.351-0.468-2.295-0.695
				c-0.961-0.244-1.813-0.529-2.557-0.852s-1.368-0.711-1.875-1.167c-1.031-0.961-1.547-2.23-1.547-3.803
				c0-1.485,0.603-2.736,1.81-3.75c1.171-0.96,2.578-1.442,4.222-1.442c0.472,0,0.957,0.031,1.455,0.092
				c0.499,0.062,0.992,0.197,1.482,0.408c0.437,0.192,0.834,0.393,1.193,0.603c0.357,0.209,0.721,0.516,1.088,0.917
				c0.227,0.246,0.41,0.464,0.551,0.656c0.14,0.193,0.279,0.437,0.42,0.734c0.104,0.227,0.188,0.529,0.248,0.904
				c0.062,0.376,0.113,0.748,0.158,1.115c0.043,0.367,0.074,0.813,0.092,1.336h-3.096v-1.18c0-0.104-0.018-0.249-0.053-0.432
				c-0.034-0.184-0.082-0.372-0.143-0.563c-0.062-0.193-0.145-0.376-0.25-0.551c-0.104-0.174-0.236-0.323-0.394-0.447
				c-0.349-0.262-0.747-0.432-1.192-0.511c-0.446-0.078-0.993-0.118-1.64-0.118c-0.892,0-1.608,0.235-2.15,0.708
				c-0.507,0.437-0.761,0.961-0.761,1.573c0,0.734,0.263,1.268,0.787,1.599c0.646,0.455,1.609,0.84,2.885,1.154
				c1.206,0.298,2.26,0.634,3.16,1.01c0.9,0.376,1.604,0.809,2.111,1.298c1.049,0.98,1.572,2.299,1.572,3.96
				S168.683,52.98,167.39,54.082z"/>
			<path fill="#231F20" d="M178.247,55.445v-0.943c-0.543,0.332-1.124,0.603-1.745,0.812c-0.62,0.21-1.255,0.315-1.901,0.315
				c-1.346,0-2.465-0.445-3.355-1.338c-0.893-0.855-1.338-1.913-1.338-3.172c0-1.365,0.525-2.492,1.573-3.383
				c0.507-0.455,1.088-0.782,1.744-0.984c0.655-0.201,1.376-0.302,2.163-0.302c0.611,0,1.259,0.088,1.941,0.263
				c0.139,0.035,0.288,0.075,0.445,0.117c0.157,0.045,0.314,0.102,0.473,0.171v-1.625c0-0.349-0.049-0.621-0.145-0.813
				c-0.097-0.193-0.223-0.34-0.381-0.446c-0.209-0.14-0.471-0.25-0.787-0.328c-0.314-0.079-0.699-0.118-1.154-0.118
				c-0.227,0-0.488,0.032-0.786,0.092c-0.297,0.061-0.599,0.141-0.905,0.236c-0.305,0.096-0.594,0.192-0.864,0.289
				c-0.271,0.096-0.503,0.178-0.695,0.249l-0.944-2.333c0.612-0.246,1.137-0.442,1.573-0.59c0.438-0.148,0.9-0.285,1.391-0.407
				c0.489-0.122,0.917-0.184,1.284-0.184c0.805,0,1.535,0.083,2.19,0.25c0.655,0.165,1.236,0.424,1.743,0.773
				c0.525,0.402,0.91,0.883,1.154,1.442c0.245,0.56,0.367,1.188,0.367,1.888v7.211h2.072v2.858H178.247z M178.247,49.886
				c-0.367-0.191-0.727-0.351-1.076-0.472c-0.472-0.175-0.988-0.263-1.547-0.263c-0.49,0-0.896,0.057-1.219,0.171
				c-0.324,0.114-0.582,0.267-0.774,0.459c-0.438,0.385-0.655,0.865-0.655,1.441c0,0.438,0.166,0.832,0.498,1.181
				c0.157,0.157,0.35,0.279,0.577,0.366c0.228,0.089,0.515,0.132,0.865,0.132c0.577,0,1.196-0.165,1.861-0.498
				c0.56-0.279,1.05-0.63,1.47-1.048V49.886z"/>
			<path fill="#231F20" d="M184.698,55.445v-2.019V38.819h-2.256v-2.858h5.297v16.625h2.229v2.858H184.698z"/>
			<path fill="#231F20" d="M198.712,55.445v-0.943c-0.543,0.332-1.125,0.603-1.745,0.812c-0.621,0.21-1.255,0.315-1.901,0.315
				c-1.346,0-2.465-0.445-3.356-1.338c-0.892-0.855-1.337-1.913-1.337-3.172c0-1.365,0.523-2.492,1.573-3.383
				c0.507-0.455,1.089-0.782,1.743-0.984c0.656-0.201,1.377-0.302,2.164-0.302c0.611,0,1.258,0.088,1.94,0.263
				c0.14,0.035,0.288,0.075,0.446,0.117c0.156,0.045,0.314,0.102,0.473,0.171v-1.625c0-0.349-0.049-0.621-0.145-0.813
				c-0.098-0.193-0.223-0.34-0.381-0.446c-0.21-0.14-0.473-0.25-0.787-0.328c-0.314-0.079-0.699-0.118-1.154-0.118
				c-0.227,0-0.488,0.032-0.787,0.092c-0.296,0.061-0.598,0.141-0.904,0.236c-0.306,0.096-0.594,0.192-0.865,0.289
				c-0.271,0.096-0.502,0.178-0.694,0.249l-0.944-2.333c0.612-0.246,1.137-0.442,1.573-0.59c0.437-0.148,0.9-0.285,1.39-0.407
				c0.49-0.122,0.918-0.184,1.285-0.184c0.805,0,1.535,0.083,2.189,0.25c0.656,0.165,1.236,0.424,1.744,0.773
				c0.525,0.402,0.909,0.883,1.154,1.442c0.244,0.56,0.367,1.188,0.367,1.888v7.211h2.072v2.858H198.712z M198.712,49.886
				c-0.367-0.191-0.727-0.351-1.076-0.472c-0.472-0.175-0.988-0.263-1.547-0.263c-0.49,0-0.896,0.057-1.22,0.171
				s-0.581,0.267-0.774,0.459c-0.438,0.385-0.654,0.865-0.654,1.441c0,0.438,0.165,0.832,0.498,1.181
				c0.156,0.157,0.35,0.279,0.576,0.366c0.228,0.089,0.516,0.132,0.865,0.132c0.578,0,1.197-0.165,1.863-0.498
				c0.559-0.279,1.048-0.63,1.469-1.048V49.886z"/>
			<path fill="#231F20" d="M214.383,55.445v-1.154c-0.157,0.141-0.319,0.264-0.485,0.367c-0.166,0.105-0.336,0.201-0.512,0.289
				c-0.943,0.454-1.932,0.682-2.963,0.682c-1.992,0-3.654-0.69-4.982-2.072c-1.328-1.38-1.992-3.094-1.992-5.14
				c0-2.116,0.646-3.872,1.939-5.27c1.312-1.417,2.963-2.125,4.957-2.125c1.066,0,2.062,0.245,2.989,0.733
				c0.384,0.193,0.733,0.421,1.049,0.682V37.98v-2.019h3.042v16.625h2.256v2.858H214.383z M213.203,45.113
				c-0.787-0.857-1.731-1.285-2.833-1.285c-1.084,0-2.02,0.428-2.807,1.285c-0.768,0.874-1.152,1.975-1.152,3.304
				c0,1.26,0.394,2.308,1.18,3.147c0.787,0.839,1.73,1.259,2.832,1.259c1.171,0,2.125-0.411,2.858-1.232
				c0.751-0.84,1.128-1.924,1.128-3.252C214.409,47.046,214.007,45.97,213.203,45.113z"/>
		</g>

	</g>

	<style>

		.globalcontener {
			cursor: pointer;
		}

		.three-greens, .green-top, .green-center, .green-bottom {
			<!-- transition: all 0.7s cubic-bezier(0.415, -0.55, 0.355, 1.000); -->
			transition: all 0.45s ease-in-out;
		}

		.globalcontener .green-top, .globalcontener .green-center, .globalcontener .green-bottom {
			transform: scale(1);
			-o-transform: scale(1);
			-ms-transform: scale(1);
			-webkit-transform: scale(1);
		}

		.globalcontener .three-greens {
			transform: rotate(0deg);
			-o-transform: rotate(0deg);
			-ms-transform: rotate(0deg);
			-webkit-transform: rotate(0deg);
		}

		.green-top {
			transform-origin: 55px 29px;
			-o-transform-origin: 55px 29px;
			-ms-transform-origin: 55px 29px;
			-webkit-transform-origin: 55px 29px;
		}
		.green-center {
			transform-origin: 50px 35px;
			-o-transform-origin: 50px 35px;
			-ms-transform-origin: 50px 35px;
			-webkit-transform-origin: 50px 35px;
		}
		.green-bottom {
			transform-origin: 46px 42px;
			-o-transform-origin: 46px 42px;
			-ms-transform-origin: 46px 42px;
			-webkit-transform-origin: 46px 42px;
		}

		.globalcontener:hover .three-greens,
		.globalcontener:focus .three-greens {
			transform: rotate(-30deg);
			-o-transform: rotate(-30deg);
			-ms-transform: rotate(-30deg);
			-webkit-transform: rotate(-30deg);
		}

		.globalcontener:hover .green-top,
		.globalcontener:focus .green-top,
		.globalcontener:hover .green-center,
		.globalcontener:focus .green-center,
		.globalcontener:hover .green-bottom,
		.globalcontener:focus .green-bottom {
			transform: scale(5.8);
			-o-transform: scale(5.8);
			-ms-transform: scale(5.8);
			-webkit-transform: scale(5.8);
		}

		.home-icon {
			opacity: 0;
			transform-origin: 39px 43px;
			-o-transform-origin: 39px 43px;
			-ms-transform-origin: 39px 43px;
			-webkit-transform-origin: 39px 43px;
			transform: scale(2);
			-o-transform: scale(2);
			-ms-transform: scale(2);
			-webkit-transform: scale(2);
			<!-- transition: all 0.4s cubic-bezier(0.680, -0.550, 0.265, 2.00); -->
			transition: all 0.2s ease-out;
		}

		.globalcontener:hover .home-icon,
		.globalcontener:focus .home-icon {
			opacity: 1;
			transition-delay: 0.15s;
			-o-transition-delay: 0.15s;
			-ms-transition-delay: 0.15s;
			-webkit-transition-delay: 0.15s;
			transform: scale(1);
			-o-transform: scale(1);
			-ms-transform: scale(1);
			-webkit-transform: scale(1);
		}

	</style>

</svg>
