<svg version="1.1" xmlns="http://www.w3.org/2000/svg" xmlns:xlink="http://www.w3.org/1999/xlink" x="0px" y="0px"
	 width="342.782px" height="91px" viewBox="0 0 342.782 91" enable-background="new 0 0 342.782 91" xml:space="preserve">

	<title>Silicon Salad : Agence Web Lille - Le blog</title>

	<g class="globalcontener">

		<rect x="0" fill="#FFFFFF" width="342.782" height="91"/>
		<g class="three-greens">
			<path class="green-top" fill="#688037" d="M56.252,35.487v-5.24c0-2.511-1.54-5.092-4.185-5.082c-3.087,0.012-5.092,3.564-5.092,6.068
				C46.975,36.125,53.044,33.923,56.252,35.487z"/>
			<path class="green-center" fill="#688037" d="M56.275,41.148c-0.169-1.642-1.487-1.798-2.768-1.764l-3.016-0.097c-3.249-0.211-7.437-0.08-7.437-7.574
				c0-3.308-2.707-6.719-7.513-6.719c-5.209,0-8.945,3.994-9.701,7.428c-0.088,0.399-0.135,0.789-0.135,1.154
				c0,0.393,0.05,0.751,0.135,1.081c2.079,8.04,21.198-1.542,21.198,10.396c0,0.018,0,0.033,0,0.048h0.001
				c0,3.021,2.125,5.127,5.133,3.565c2.501-1.3,3.917-4.58,4.101-6.663c0.014-0.158,0.021-0.312,0.021-0.458
				C56.298,41.404,56.289,41.273,56.275,41.148z"/>
			<path class="green-bottom" fill="#688037" d="M25.844,44.351v8.888c0,4.282,4.197,6.67,9.901,3.729c4.859-2.504,7.389-7.673,7.389-10.366
				C43.135,42.634,28.93,44.76,25.844,44.351z"/>
		</g>

		<polygon class="home-icon" fill="#FFFFFF" points="33.525,41.785 35.916,41.785 35.916,48.631 39.16,48.631 39.16,45.292 42.383,45.292
			42.383,48.631 45.608,48.631 45.608,41.785 48.453,41.785 40.998,33.703 		"/>

		<path class="mask" fill="#FFFFFF" d="M0,0v91h342.782V0H0z M40.932,62.779c-11.568,0-20.946-9.379-20.946-20.947
			c0-11.569,9.378-20.947,20.946-20.947s20.946,9.377,20.946,20.947C61.878,53.4,52.5,62.779,40.932,62.779z"/>
		<g class="font">
			<path fill="#231F20" d="M84.471,54.082c-1.26,1.083-2.798,1.626-4.615,1.626c-1.084,0-2.151-0.254-3.2-0.761
				c-0.314-0.157-0.638-0.352-0.97-0.577v1.075h-2.884v-7.789h2.884v1.47c0,0.926,0.401,1.757,1.206,2.491
				c0.821,0.751,1.817,1.128,2.989,1.128c1.014,0,1.835-0.289,2.466-0.867c0.61-0.558,0.918-1.258,0.918-2.097
				c0-0.719-0.264-1.285-0.787-1.705c-0.315-0.227-0.767-0.459-1.352-0.694s-1.351-0.468-2.294-0.694
				c-0.962-0.244-1.814-0.529-2.557-0.853c-0.744-0.323-1.368-0.711-1.875-1.167c-1.032-0.961-1.547-2.23-1.547-3.803
				c0-1.485,0.603-2.736,1.809-3.75c1.172-0.96,2.579-1.442,4.222-1.442c0.473,0,0.958,0.031,1.456,0.092
				c0.498,0.062,0.992,0.197,1.481,0.408c0.438,0.192,0.835,0.393,1.193,0.603c0.357,0.209,0.721,0.516,1.088,0.917
				c0.227,0.246,0.411,0.464,0.55,0.656c0.141,0.193,0.28,0.437,0.42,0.734c0.104,0.227,0.188,0.529,0.249,0.904
				c0.061,0.376,0.113,0.748,0.157,1.115c0.044,0.367,0.075,0.813,0.092,1.336h-3.094v-1.18c0-0.104-0.019-0.249-0.054-0.432
				c-0.034-0.184-0.083-0.372-0.144-0.563c-0.062-0.193-0.145-0.376-0.25-0.551c-0.104-0.174-0.236-0.323-0.393-0.447
				c-0.351-0.262-0.747-0.432-1.194-0.511c-0.446-0.078-0.992-0.118-1.638-0.118c-0.893,0-1.609,0.235-2.151,0.708
				c-0.507,0.438-0.761,0.961-0.761,1.573c0,0.734,0.263,1.268,0.787,1.599c0.646,0.455,1.608,0.84,2.885,1.154
				c1.207,0.298,2.259,0.634,3.16,1.01c0.899,0.376,1.604,0.809,2.11,1.298c1.05,0.98,1.573,2.299,1.573,3.959
				C86.409,51.6,85.765,52.98,84.471,54.082z"/>
			<path fill="#231F20" d="M88.457,55.445l-0.052-1.18V44.222h-2.177v-2.86h5.218v11.225h2.125v2.858H88.457z M90.896,38.924
				c-0.403,0.367-0.85,0.551-1.338,0.551c-0.489,0-0.936-0.184-1.337-0.551c-0.367-0.402-0.551-0.848-0.551-1.337
				c0-0.542,0.185-0.998,0.551-1.364c0.401-0.367,0.848-0.551,1.337-0.551c0.488,0,0.935,0.184,1.338,0.551
				c0.367,0.402,0.55,0.848,0.55,1.337C91.446,38.103,91.263,38.557,90.896,38.924z"/>
			<path fill="#231F20" d="M95.097,55.445v-2.02V38.819h-2.256v-2.858h5.298v16.625h2.229v2.857h-5.271V55.445z"/>
			<path fill="#231F20" d="M101.832,55.445l-0.053-1.18V44.222h-2.177v-2.86h5.219v11.225h2.124v2.858H101.832z M104.27,38.924
				c-0.402,0.367-0.849,0.551-1.337,0.551c-0.49,0-0.936-0.184-1.337-0.551c-0.368-0.402-0.552-0.848-0.552-1.337
				c0-0.542,0.185-0.998,0.552-1.364c0.401-0.367,0.847-0.551,1.337-0.551c0.488,0,0.935,0.184,1.337,0.551
				c0.367,0.402,0.551,0.848,0.551,1.337C104.821,38.103,104.637,38.557,104.27,38.924z"/>
			<path fill="#231F20" d="M118.627,53.242c-0.428,0.576-0.922,1.059-1.48,1.441c-1.084,0.752-2.326,1.129-3.725,1.129
				c-2.062,0-3.741-0.701-5.034-2.098c-1.295-1.398-1.941-3.165-1.941-5.299c0-2.08,0.639-3.818,1.915-5.217
				c1.312-1.452,2.946-2.178,4.904-2.178c0.646,0,1.268,0.088,1.86,0.263c0.595,0.174,1.146,0.463,1.652,0.865h2.413v5.613h-2.78
				c-0.036-0.996-0.14-1.71-0.314-2.138c-0.176-0.429-0.395-0.739-0.656-0.932c-0.629-0.506-1.355-0.76-2.176-0.76
				c-1.103,0-1.993,0.393-2.676,1.18c-0.717,0.821-1.075,1.924-1.075,3.304c0,0.734,0.097,1.369,0.288,1.902
				c0.192,0.533,0.464,1,0.812,1.402c0.699,0.785,1.643,1.18,2.833,1.18c0.454,0,0.853-0.057,1.193-0.17s0.65-0.275,0.931-0.485
				c0.28-0.228,0.546-0.521,0.8-0.879c0.253-0.357,0.546-0.923,0.879-1.69l2.622,1.127
				C119.471,51.854,119.056,52.665,118.627,53.242z"/>
			<path fill="#231F20" d="M132.303,53.663c-1.328,1.432-3.008,2.149-5.034,2.149c-2.028,0-3.707-0.719-5.035-2.149
				c-1.329-1.435-1.993-3.183-1.993-5.246c0-2.062,0.665-3.811,1.993-5.244c1.328-1.433,3.007-2.151,5.035-2.151
				c2.026,0,3.706,0.718,5.034,2.151c1.328,1.433,1.992,3.183,1.992,5.244C134.296,50.48,133.632,52.229,132.303,53.663z
				 M130.101,45.166c-0.734-0.822-1.68-1.233-2.832-1.233c-1.154,0-2.099,0.411-2.832,1.233c-0.752,0.839-1.127,1.922-1.127,3.251
				c0,1.33,0.375,2.413,1.127,3.252c0.733,0.821,1.678,1.231,2.832,1.231c1.152,0,2.098-0.41,2.832-1.231
				c0.752-0.839,1.127-1.922,1.127-3.252C131.228,47.088,130.853,46.005,130.101,45.166z"/>
			<path fill="#231F20" d="M144.393,55.445v-2.02V45.27c0-0.473-0.102-0.813-0.303-1.023c-0.2-0.21-0.528-0.315-0.982-0.315
				c-0.297,0-0.607,0.043-0.931,0.13c-0.324,0.088-0.679,0.229-1.062,0.42c-0.332,0.157-0.643,0.332-0.932,0.525
				c-0.287,0.191-0.556,0.393-0.8,0.602v6.976h2.021v2.858h-5.062v-2.02v-9.205h-2.256v-2.86h5.298V42.2
				c0.595-0.351,1.216-0.635,1.861-0.853c0.646-0.218,1.328-0.328,2.046-0.328c0.596,0,1.142,0.088,1.641,0.263
				c0.498,0.174,0.946,0.463,1.35,0.865c0.771,0.752,1.154,1.74,1.154,2.964v7.474h1.967v2.858h-5.009V55.445z"/>
			<path fill="#231F20" d="M167.39,54.082c-1.261,1.083-2.799,1.626-4.615,1.626c-1.085,0-2.15-0.254-3.2-0.761
				c-0.313-0.157-0.638-0.352-0.97-0.577v1.075h-2.885v-7.789h2.885v1.47c0,0.926,0.401,1.757,1.206,2.491
				c0.82,0.751,1.816,1.128,2.988,1.128c1.015,0,1.837-0.289,2.467-0.867c0.61-0.558,0.917-1.258,0.917-2.097
				c0-0.719-0.263-1.285-0.787-1.705c-0.314-0.227-0.765-0.459-1.351-0.694s-1.351-0.468-2.295-0.694
				c-0.961-0.244-1.812-0.529-2.557-0.853s-1.368-0.711-1.875-1.167c-1.031-0.961-1.547-2.23-1.547-3.803
				c0-1.485,0.603-2.736,1.81-3.75c1.171-0.96,2.578-1.442,4.223-1.442c0.472,0,0.957,0.031,1.454,0.092
				c0.499,0.062,0.992,0.197,1.482,0.408c0.438,0.192,0.834,0.393,1.193,0.603c0.356,0.209,0.721,0.516,1.088,0.917
				c0.227,0.246,0.41,0.464,0.551,0.656c0.14,0.193,0.279,0.437,0.42,0.734c0.104,0.227,0.188,0.529,0.248,0.904
				c0.062,0.376,0.113,0.748,0.158,1.115c0.043,0.367,0.074,0.813,0.092,1.336h-3.096v-1.18c0-0.104-0.019-0.249-0.054-0.432
				c-0.033-0.184-0.082-0.372-0.143-0.563c-0.062-0.193-0.145-0.376-0.25-0.551c-0.104-0.174-0.236-0.323-0.394-0.447
				c-0.35-0.262-0.747-0.432-1.192-0.511c-0.446-0.078-0.993-0.118-1.64-0.118c-0.893,0-1.608,0.235-2.15,0.708
				c-0.507,0.438-0.761,0.961-0.761,1.573c0,0.734,0.263,1.268,0.787,1.599c0.646,0.455,1.608,0.84,2.885,1.154
				c1.206,0.298,2.26,0.634,3.16,1.01c0.899,0.376,1.604,0.809,2.11,1.298c1.05,0.98,1.572,2.299,1.572,3.959
				C169.327,51.6,168.683,52.98,167.39,54.082z"/>
			<path fill="#231F20" d="M178.247,55.445v-0.943c-0.543,0.332-1.124,0.604-1.745,0.812c-0.62,0.209-1.255,0.314-1.9,0.314
				c-1.347,0-2.465-0.445-3.355-1.338c-0.893-0.855-1.338-1.913-1.338-3.172c0-1.365,0.525-2.492,1.573-3.383
				c0.507-0.455,1.088-0.782,1.744-0.984c0.654-0.201,1.376-0.302,2.163-0.302c0.61,0,1.259,0.088,1.94,0.263
				c0.139,0.035,0.288,0.075,0.445,0.117c0.157,0.045,0.313,0.102,0.473,0.171v-1.625c0-0.349-0.049-0.621-0.145-0.813
				c-0.098-0.193-0.224-0.34-0.381-0.446c-0.209-0.14-0.472-0.25-0.787-0.328c-0.314-0.079-0.699-0.118-1.154-0.118
				c-0.227,0-0.488,0.032-0.786,0.092c-0.297,0.061-0.599,0.141-0.905,0.236c-0.305,0.096-0.594,0.192-0.863,0.289
				c-0.271,0.096-0.503,0.178-0.695,0.249l-0.944-2.333c0.612-0.246,1.138-0.442,1.573-0.59c0.438-0.148,0.9-0.285,1.391-0.407
				c0.489-0.122,0.917-0.184,1.284-0.184c0.806,0,1.535,0.083,2.19,0.25c0.655,0.165,1.235,0.424,1.743,0.773
				c0.524,0.402,0.91,0.883,1.153,1.442c0.245,0.56,0.367,1.188,0.367,1.888v7.211h2.072v2.858H178.247z M178.247,49.886
				c-0.367-0.19-0.727-0.351-1.076-0.472c-0.472-0.175-0.987-0.264-1.547-0.264c-0.49,0-0.896,0.058-1.219,0.172
				c-0.324,0.113-0.582,0.267-0.774,0.459c-0.438,0.385-0.654,0.865-0.654,1.441c0,0.438,0.166,0.832,0.498,1.18
				c0.156,0.158,0.35,0.279,0.576,0.367c0.229,0.088,0.516,0.131,0.865,0.131c0.577,0,1.196-0.164,1.861-0.498
				c0.56-0.278,1.05-0.629,1.47-1.047V49.886z"/>
			<path fill="#231F20" d="M184.698,55.445v-2.02V38.819h-2.256v-2.858h5.297v16.625h2.229v2.857h-5.27V55.445z"/>
			<path fill="#231F20" d="M198.712,55.445v-0.943c-0.543,0.332-1.125,0.604-1.745,0.812s-1.255,0.314-1.9,0.314
				c-1.346,0-2.465-0.445-3.356-1.338c-0.892-0.855-1.337-1.913-1.337-3.172c0-1.365,0.523-2.492,1.573-3.383
				c0.507-0.455,1.089-0.782,1.743-0.984c0.656-0.201,1.377-0.302,2.164-0.302c0.61,0,1.258,0.088,1.939,0.263
				c0.141,0.035,0.288,0.075,0.446,0.117c0.156,0.045,0.314,0.102,0.473,0.171v-1.625c0-0.349-0.049-0.621-0.145-0.813
				c-0.098-0.193-0.223-0.34-0.381-0.446c-0.21-0.14-0.474-0.25-0.787-0.328c-0.314-0.079-0.699-0.118-1.154-0.118
				c-0.227,0-0.488,0.032-0.787,0.092c-0.296,0.061-0.598,0.141-0.903,0.236c-0.307,0.096-0.595,0.192-0.865,0.289
				c-0.271,0.096-0.502,0.178-0.694,0.249l-0.944-2.333c0.612-0.246,1.138-0.442,1.573-0.59c0.438-0.148,0.9-0.285,1.391-0.407
				c0.489-0.122,0.918-0.184,1.284-0.184c0.806,0,1.535,0.083,2.189,0.25c0.656,0.165,1.236,0.424,1.744,0.773
				c0.524,0.402,0.909,0.883,1.154,1.442c0.243,0.56,0.366,1.188,0.366,1.888v7.211h2.072v2.858H198.712z M198.712,49.886
				c-0.366-0.19-0.727-0.351-1.075-0.472c-0.473-0.175-0.988-0.264-1.548-0.264c-0.489,0-0.896,0.058-1.22,0.172
				c-0.324,0.113-0.581,0.267-0.773,0.459c-0.438,0.385-0.654,0.865-0.654,1.441c0,0.438,0.165,0.832,0.498,1.18
				c0.156,0.158,0.35,0.279,0.576,0.367c0.228,0.088,0.516,0.131,0.864,0.131c0.578,0,1.197-0.164,1.863-0.498
				c0.56-0.278,1.048-0.629,1.469-1.047V49.886z"/>
			<path fill="#231F20" d="M214.383,55.445v-1.154c-0.156,0.141-0.318,0.264-0.484,0.367c-0.166,0.105-0.336,0.201-0.512,0.289
				c-0.943,0.453-1.933,0.682-2.964,0.682c-1.991,0-3.653-0.689-4.981-2.072c-1.328-1.38-1.992-3.094-1.992-5.14
				c0-2.116,0.646-3.872,1.939-5.27c1.312-1.417,2.963-2.125,4.957-2.125c1.065,0,2.062,0.245,2.988,0.733
				c0.384,0.193,0.733,0.421,1.049,0.682V37.98v-2.019h3.042v16.625h2.257v2.857h-5.299V55.445z M213.203,45.113
				c-0.787-0.857-1.73-1.285-2.833-1.285c-1.084,0-2.02,0.428-2.807,1.285c-0.769,0.874-1.152,1.975-1.152,3.304
				c0,1.26,0.395,2.308,1.18,3.147c0.787,0.838,1.73,1.259,2.832,1.259c1.172,0,2.125-0.411,2.858-1.232
				c0.751-0.84,1.128-1.924,1.128-3.252C214.409,47.046,214.007,45.97,213.203,45.113z"/>
			<path fill="#2F4B46" d="M233.656,54.555l1.922-0.308l2.324-17.237l-1.746-0.246l0.133-1.045h6.102l-0.115,1.045l-2.301,0.246
				l-2.332,17.237l6.939-0.118l1.676-4.464l1.213,0.233l-1.236,5.56h-12.67L233.656,54.555z"/>
			<path fill="#2F4B46" d="M254.558,54.273c1.537,0,3.004-0.697,4.398-2.092l0.488,0.878c-0.436,0.619-0.975,1.126-1.613,1.521
				c-1.221,0.759-2.344,1.136-3.369,1.136c-1.031,0-1.869-0.173-2.51-0.515c-1.783-0.929-2.672-2.659-2.672-5.188
				c0-1.669,0.348-3.271,1.043-4.8c1.008-2.236,2.459-3.708,4.361-4.414c0.637-0.231,1.283-0.346,1.943-0.346
				c0.656,0,1.215,0.081,1.668,0.245c0.457,0.164,0.836,0.391,1.137,0.684c0.602,0.585,0.902,1.281,0.902,2.089
				c0,0.809-0.158,1.488-0.484,2.033c-0.322,0.545-0.742,1.031-1.256,1.451c-0.518,0.424-1.102,0.787-1.75,1.097
				c-0.646,0.311-1.299,0.564-1.953,0.764c-1.309,0.396-2.461,0.602-3.459,0.619c-0.02,0.197-0.025,0.385-0.025,0.558
				c0,0.178,0.004,0.397,0.02,0.655c0.012,0.255,0.062,0.563,0.141,0.919c0.084,0.357,0.201,0.7,0.357,1.026
				c0.156,0.33,0.352,0.617,0.592,0.865C253.041,54.001,253.722,54.273,254.558,54.273z M251.486,48.272
				c1.572-0.06,3.043-0.465,4.412-1.213c0.953-0.515,1.625-1.157,2.012-1.924c0.209-0.394,0.311-0.89,0.311-1.482
				c0-0.593-0.18-1.071-0.535-1.438c-0.357-0.366-0.805-0.548-1.355-0.548c-0.545,0-1.02,0.098-1.434,0.296
				c-0.406,0.199-0.779,0.467-1.113,0.807c-0.338,0.338-0.635,0.731-0.895,1.174c-0.266,0.443-0.49,0.91-0.682,1.399
				C251.82,46.308,251.58,47.282,251.486,48.272z"/>
			<path fill="#2F4B46" d="M275.588,55.278c-0.75,0.293-1.613,0.438-2.584,0.438c-0.98,0-1.98-0.219-3.006-0.657l-1.029,0.464
				l2.516-19.624l-1.229-0.439l0.209-0.876l2.695-0.414l0.553,0.297l-1.107,8.503c0.793-1.119,1.779-1.884,2.957-2.297
				c0.438-0.146,0.965-0.219,1.588-0.219c0.615,0,1.203,0.138,1.754,0.419c0.547,0.279,1.002,0.668,1.367,1.167
				c0.711,0.991,1.068,2.323,1.068,4c0,1.386-0.316,2.812-0.949,4.285C279.302,52.795,277.701,54.445,275.588,55.278z
				 M271.201,53.782c0.543,0.447,1.221,0.671,2.039,0.671c0.812,0,1.492-0.127,2.031-0.383c0.539-0.253,1.02-0.596,1.439-1.025
				c0.42-0.429,0.789-0.924,1.109-1.482c0.316-0.56,0.58-1.146,0.787-1.755c0.41-1.218,0.619-2.467,0.619-3.736
				c0-1.267-0.229-2.273-0.676-3.018c-0.453-0.744-1.098-1.116-1.932-1.116c-0.879,0-1.756,0.34-2.631,1.02
				c-0.707,0.551-1.25,1.166-1.629,1.845L271.201,53.782z"/>
			<path fill="#2F4B46" d="M285.508,55.717c-0.867,0-1.301-0.484-1.301-1.457c0-0.396,0.025-0.727,0.074-0.995l2.582-17.352
				l-1.537-0.425l0.207-0.865l2.957-0.452l0.514,0.297l-2.787,18.953c-0.043,0.31-0.029,0.546,0.041,0.702
				c0.066,0.159,0.162,0.238,0.283,0.238c0.377,0,0.857-0.298,1.432-0.901l0.336,0.554c-0.174,0.31-0.43,0.6-0.773,0.866
				C286.81,55.437,286.135,55.717,285.508,55.717z"/>
			<path fill="#2F4B46" d="M294.152,55.316c-1.885-0.816-2.824-2.74-2.824-5.767c0-2.313,0.648-4.374,1.947-6.18
				c0.869-1.213,1.934-2.06,3.201-2.542c0.635-0.248,1.34-0.373,2.107-0.373c0.77,0,1.463,0.132,2.08,0.4
				c0.613,0.266,1.127,0.653,1.541,1.161c0.869,1.058,1.301,2.594,1.301,4.608c0,2.311-0.646,4.371-1.947,6.178
				c-0.867,1.212-1.936,2.066-3.199,2.556c-0.645,0.238-1.354,0.36-2.123,0.36C295.469,55.717,294.771,55.583,294.152,55.316z
				 M293.457,49.589c0,3.242,1.07,4.864,3.215,4.864c1.502,0,2.691-0.903,3.572-2.71c0.746-1.533,1.121-3.247,1.121-5.146
				c0-3.252-1.076-4.879-3.223-4.879c-1.02,0-1.908,0.436-2.674,1.303c-1.006,1.146-1.645,2.788-1.908,4.931
				C293.492,48.516,293.457,49.064,293.457,49.589z"/>
			<path fill="#2F4B46" d="M313.945,40.455c0.877,0,1.779,0.176,2.709,0.528l1.496-0.528l-2.486,15.999
				c-0.289,1.874-1.184,3.31-2.688,4.309c-1.266,0.833-2.65,1.251-4.154,1.251c-1.135,0-2.074-0.149-2.826-0.451l0.52-1.909
				c1.123,0.48,2.102,0.724,2.932,0.724c0.832,0,1.461-0.056,1.891-0.163c0.43-0.106,0.793-0.283,1.1-0.536
				c0.564-0.48,0.943-1.324,1.133-2.528l0.566-3.625c-0.805,0.997-1.773,1.668-2.902,2.013c-0.412,0.121-0.914,0.181-1.504,0.181
				c-0.586,0-1.15-0.14-1.686-0.419c-0.539-0.281-0.988-0.664-1.338-1.154c-0.697-0.981-1.043-2.313-1.043-4
				c0-1.411,0.32-2.84,0.965-4.284c0.701-1.556,1.635-2.817,2.811-3.78C310.767,40.996,312.269,40.455,313.945,40.455z
				 M315.802,42.351c-0.549-0.422-1.219-0.633-2-0.633s-1.445,0.127-1.99,0.382c-0.549,0.254-1.041,0.595-1.473,1.024
				c-0.438,0.431-0.812,0.927-1.131,1.492c-0.316,0.562-0.584,1.148-0.801,1.76c-0.42,1.195-0.631,2.433-0.631,3.71
				c0,1.276,0.215,2.288,0.645,3.039c0.428,0.747,1.047,1.122,1.844,1.122c1.189,0,2.334-0.557,3.436-1.668
				c0.283-0.29,0.52-0.574,0.709-0.851L315.802,42.351z"/>
		</g>

	</g>

	<style>

		.globalcontener {
			cursor: pointer;
		}

		.three-greens, .green-top, .green-center, .green-bottom {
			<!-- transition: all 0.7s cubic-bezier(0.415, -0.55, 0.355, 1.000); -->
			transition: all 0.45s ease-in-out;
		}

		.globalcontener .green-top, .globalcontener .green-center, .globalcontener .green-bottom {
			transform: scale(1);
			-o-transform: scale(1);
			-ms-transform: scale(1);
			-webkit-transform: scale(1);
		}

		.globalcontener .three-greens {
			transform: rotate(0deg);
			-o-transform: rotate(0deg);
			-ms-transform: rotate(0deg);
			-webkit-transform: rotate(0deg);
		}

		.green-top {
			transform-origin: 55px 29px;
			-o-transform-origin: 55px 29px;
			-ms-transform-origin: 55px 29px;
			-webkit-transform-origin: 55px 29px;
		}
		.green-center {
			transform-origin: 50px 35px;
			-o-transform-origin: 50px 35px;
			-ms-transform-origin: 50px 35px;
			-webkit-transform-origin: 50px 35px;
		}
		.green-bottom {
			transform-origin: 46px 42px;
			-o-transform-origin: 46px 42px;
			-ms-transform-origin: 46px 42px;
			-webkit-transform-origin: 46px 42px;
		}

		.globalcontener:hover .three-greens,
		.globalcontener:focus .three-greens {
			transform: rotate(-30deg);
			-o-transform: rotate(-30deg);
			-ms-transform: rotate(-30deg);
			-webkit-transform: rotate(-30deg);
		}

		.globalcontener:hover .green-top,
		.globalcontener:focus .green-top,
		.globalcontener:hover .green-center,
		.globalcontener:focus .green-center,
		.globalcontener:hover .green-bottom,
		.globalcontener:focus .green-bottom {
			transform: scale(5.8);
			-o-transform: scale(5.8);
			-ms-transform: scale(5.8);
			-webkit-transform: scale(5.8);
		}

		.home-icon {
			opacity: 0;
			transform-origin: 39px 43px;
			-o-transform-origin: 39px 43px;
			-ms-transform-origin: 39px 43px;
			-webkit-transform-origin: 39px 43px;
			transform: scale(2);
			-o-transform: scale(2);
			-ms-transform: scale(2);
			-webkit-transform: scale(2);
			<!-- transition: all 0.4s cubic-bezier(0.680, -0.550, 0.265, 2.00); -->
			transition: all 0.2s ease-out;
		}

		.globalcontener:hover .home-icon,
		.globalcontener:focus .home-icon {
			opacity: 1;
			transition-delay: 0.15s;
			-o-transition-delay: 0.15s;
			-ms-transition-delay: 0.15s;
			-webkit-transition-delay: 0.15s;
			transform: scale(1);
			-o-transform: scale(1);
			-ms-transform: scale(1);
			-webkit-transform: scale(1);
		}

	</style>

</svg>
